<?xml version="1.0" encoding="iso-8859-1"?>
<!-- Generator: Adobe Illustrator 19.0.0, SVG Export Plug-In . SVG Version: 6.00 Build 0)  -->
<svg version="1.1" id="Layer_1" xmlns="http://www.w3.org/2000/svg" xmlns:xlink="http://www.w3.org/1999/xlink" x="0px" y="0px"
	 viewBox="0 0 496 496" style="enable-background:new 0 0 496 496;" xml:space="preserve">
<path style="fill:#F73974;" d="M496,248c0,136.8-111.2,248-248,248S0,384.8,0,248S111.2,0,248,0S496,111.2,496,248z"/>
<path style="fill:#DD0772;" d="M248,0c136.8,0,248,111.2,248,248S384.8,496,248,496"/>
<path style="fill:#ED266E;" d="M72.8,72.8c96.8-96.8,253.6-96.8,350.4,0s96.8,253.6,0,350.4"/>
<g>
	<path style="fill:#DD0772;" d="M188,192c-12,0-20,9.6-20,20.8v116c0,12,8,21.6,20,21.6s20-9.6,20-21.6v-116
		C208,201.6,200,192,188,192z"/>
	<path style="fill:#DD0772;" d="M308,192c-12,0-20,9.6-20,20.8v116c0,12,8,21.6,20,21.6s20-9.6,20-21.6v-116
		C328,201.6,320,192,308,192z"/>
</g>
<g>
	<path style="fill:#FFFFFF;" d="M188,168.8c-12,0-20,9.6-20,21.6v116c0,12,8,21.6,20,21.6s20-9.6,20-21.6V189.6
		C208,178.4,200,168.8,188,168.8z"/>
	<path style="fill:#FFFFFF;" d="M308,168.8c-12,0-20,9.6-20,21.6v116c0,12,8,21.6,20,21.6s20-9.6,20-21.6V189.6
		C328,178.4,320,168.8,308,168.8z"/>
</g>
<g>
</g>
<g>
</g>
<g>
</g>
<g>
</g>
<g>
</g>
<g>
</g>
<g>
</g>
<g>
</g>
<g>
</g>
<g>
</g>
<g>
</g>
<g>
</g>
<g>
</g>
<g>
</g>
<g>
</g>
</svg>
